<?xml version="1.0" encoding="UTF-8"?>
<svg id="Layer_1" xmlns="http://www.w3.org/2000/svg" viewBox="0 0 460.06 464.23"><defs><style>.cls-1{letter-spacing:-.02em;}.cls-2{letter-spacing:-.04em;}.cls-3{font-size:73px;}.cls-3,.cls-4,.cls-5,.cls-6{fill:#000;}.cls-3,.cls-5,.cls-6{font-family:UrbaneRounded-Heavy, 'Urbane Rounded';font-weight:800;}.cls-4{stroke-width:0px;}.cls-5{font-size:95.1px;}.cls-6{font-size:26px;}</style></defs><path class="cls-4" d="M118.03,338.33c-.27-2.43-1.31-3.2-3.5-3.2-29.45.09-58.91.09-88.36.11-.75,0-1.69.24-2.21-.12-.98-.67-2.3-1.61-2.44-2.58-.2-1.43,1.01-2.21,2.65-2.2,8.76.04,17.52,0,26.28-.01,20.11,0,40.22,0,60.33,0,1.3,0,2.61,0,4.18,0-1-3.68-1.91-6.94-2.75-10.21-.37-1.45-.87-2.95-.81-4.41.12-2.5-1.29-3.01-3.29-3.3-5.18-.76-9.23-3.24-11.57-8.07-2.91-6.01-.44-13.61,5.76-16.96,2.07-1.12,2.46-2.4,2.36-4.55-.4-8.07-1.04-16.18-.72-24.24.26-6.43,1.37-12.91,2.89-19.17,1.47-6.06,5.62-10.52,10.99-13.71,1.79-1.07,2.4-2.39,2.59-4.57.81-9.54,1.95-19.05,3.02-28.56.27-2.37-1.91-4.81-4.34-4.69-5.89.28-10.26-3.47-10.89-9.34-.63-5.94,2.82-10.54,8.6-11.45,5.35-.84,10.01,2.97,10.89,8.92.09.64.12,1.29.64,2.06.87-2.71,1.69-5.44,2.63-8.12,2.86-8.17,5.83-16.31,8.61-24.51.49-1.44.04-3.18.41-4.69.33-1.32.88-3.16,1.88-3.65,4.99-2.45,10.03-4.98,15.31-6.66,12.83-4.07,26.14-5.95,39.51-6.78,13.96-.86,27.98-1.14,41.98-1.17,19.77-.05,39.48,1.11,58.92,5.13,8.11,1.67,15.95,4.09,23.24,8.14,3.81,2.11,3.86,2.11,3.22,6.38-.07.47.04,1,.2,1.46,3.89,10.99,7.79,21.97,11.7,32.95.13.38.33.73.74,1.67.17-.96.29-1.36.31-1.76.21-4.12,2.06-7.18,5.91-8.78,3.87-1.61,7.49-.76,10.35,2.13,3,3.04,4.22,6.79,2.68,11.03-1.77,4.88-6.08,7.57-11.06,7.03-2.08-.23-4.11,2.23-3.82,4.67.95,8.02,2.31,16.02,2.71,24.07.25,5.09,1.85,8.36,6.08,11.41,6.25,4.5,8.66,11.58,9.81,19.05,1.81,11.8.92,23.62.23,35.43-.14,2.35.3,3.73,2.49,4.95,4.88,2.73,7.23,7.16,6.62,12.74-.63,5.78-4.08,9.49-9.53,11.38-.55.19-1.11.47-1.67.5-3.4.17-4.57,2.11-5.08,5.31-.67,4.23-1.97,8.36-3.06,12.79.81.04,1.68.12,2.55.12,27.87,0,55.74,0,83.61,0,2.92,0,4.73.92,4.38,2.45-.53,2.34-2.41,2.53-4.49,2.53-28.54-.03-57.07.01-85.61-.03-2.13,0-3.53.48-3.7,2.89,8.81.27,17.61.51,26.42.81,3.08.1,6.18.22,9.24.56.9.1,1.7.99,2.55,1.52-.79.5-1.54,1.37-2.36,1.43-5.99.43-11.98.85-17.98,1-79.84,1.97-159.69.61-239.54.79-13.92.03-27.85-.83-41.76-1.4-1.47-.06-3.72.34-3.96-1.91-.04-.41,2.48-1.53,3.84-1.59,10.25-.44,20.51-.69,30.77-.99,1.41-.04,2.83,0,4.43,0ZM143.35,223.26c-.01.91.02,1.83-.05,2.74-.2,2.46-2.47,4.89-4.92,5.31-2.54.44-4.88-.7-5.83-2.83-1.07-2.4-.25-5.87,1.91-8.06,1.94-1.97,4.3-2.3,7.13-.97.62.29,1.23.62,2.48,1.25-.61-.91-.74-1.22-.96-1.44-2.61-2.61-7.2-2.38-9.87.49-3.29,3.52-3.38,8.98-.19,11.65,2.6,2.18,7.94,1.41,10.13-1.47,1.71-2.24,1.76-4.96.13-6.64-1.26-1.18-2.37-2.6-3.81-3.47-2.22-1.34-3.78.2-4.98,1.88-.55.77-1.13,1.91-.95,2.71.34,1.54.9,3.3,1.98,4.32.77.73,2.82.92,3.81.4,1.24-.65,2.05-2.21,2.92-3.46.5-.72.73-1.61,1.09-2.43ZM263.13,191.65c.03-.27.05-.55.08-.82,12.01,0,24.02.01,36.03,0,6.09-.01,12.19.04,18.27-.16,7.34-.24,10.97-4.38,9.5-11.12-1.75-8.04-3.82-16.01-5.91-23.97-2.28-8.65-8.31-13.04-16.95-13.84-12.19-1.14-24.4-2.24-36.62-2.92-10.23-.57-20.5-.76-30.75-.66-15.09.14-30.18.43-45.25,1.14-10.64.5-21.25,1.75-31.86,2.76-8.68.82-14.08,5.74-16.27,13.99-2.19,8.24-4.1,16.57-5.93,24.9-.91,4.16.72,6.98,4.78,8.43,2.15.77,4.52,1.23,6.81,1.29,7.26.19,14.52.14,21.78.15,10.5.02,21.01,0,31.51,0,0,.27,0,.54,0,.81-21.72.53-43.45,1.06-64.96,1.58,12.62,7.56,25.38,15.2,38.15,22.84.11-.16.22-.32.32-.48-8.7-6.02-17.39-12.03-26.09-18.05.05-.23.09-.46.14-.68,19.96-.27,39.92-.54,59.89-.81,0,.21.01.42.02.63l-49.23,2.66c.01.33.03.65.04.98,15.41-.31,30.82-1.31,46.23.42-12.57.81-25.14,1.63-37.71,2.44.01.03.02.05.03.08,5.99,0,11.98,0,17.97,0s12.01,0,18.01,0c0,.24.01.47.02.71-9.56.85-19.11,1.69-25.74,2.28h22.17c.02.32.05.65.07.97-3.97.41-7.94.82-12.51,1.29h14.65c-7.69,19.02.74,32.98,9.53,39.75,11.12,8.56,25.33,9.1,36.62,1.54,5.62-3.76,9.75-8.86,12.24-15.14,3.5-8.83,2.75-17.6-1.07-26.17h14.41c-3.92-.44-8.22-.36-12.05-2.62,7.73.28,15.45.56,23.18.85,0-.11.01-.22.02-.33-8.87-.75-17.73-1.51-26.6-2.26.03-.22.05-.43.08-.65h36.51c0-.1.01-.2.02-.3-12.77-.75-25.54-1.5-38.3-2.26,15.42-1.96,30.88-.69,46.31-.65,0-.33.02-.65.03-.98-16.62-.85-33.23-1.7-49.85-2.55,0-.23.02-.46.03-.69,20.03.27,40.07.54,60.1.81,0,.23.02.45.03.68-7.88,5.36-15.77,10.71-23.65,16.07.14.2.28.4.41.6,12.02-6.97,24.04-13.94,36.12-20.95-21.74-.54-43.27-1.07-64.81-1.6ZM313.42,324.4c-.44.16-.73.26-1.03.38-7.26,2.83-12.21,1.1-16.38-5.54-.44-.7-1.66-1.3-2.51-1.3-40.71-.06-81.42-.05-122.13-.09-1.49,0-2.34.38-3.14,1.74-2.72,4.62-6.76,7.11-12.26,6.48-1.6-.18-3.13-.96-4.83-1.52-.69,2.28-1.35,4.48-2.06,6.82h166.52c-.77-2.46-1.46-4.66-2.19-6.97ZM169.62,312.1c41.96.35,83.59.68,125.3-.21.08-1.88-.07-3.18.24-4.35.67-2.49-.5-2.84-2.58-2.76-9,.37-18,.95-27,.92-29.02-.11-58.04-.45-87.07-.7-2.97-.03-5.94,0-8.89,0v7.1ZM147.52,236.41c-10.55-.09-18.92,8.54-19.07,19.65-.14,10.24,9.11,19.81,19.23,19.87,10.79.07,19.65-8.59,19.52-19.5-.12-10.37-9.07-20.07-19.68-20.02ZM336.11,255.79c-.31-11.13-9.05-19.69-19.86-19.44-10.19.24-19.07,10.14-18.7,20.89.34,9.71,8.06,18.75,18.99,18.66,11.07-.09,19.87-9.35,19.57-20.11ZM140.42,156.99c-.14-.04-.28-.08-.42-.12-.24.59-.52,1.16-.7,1.76-3.38,11.39-6.77,22.78-10.13,34.18-1.11,3.77-1.13,3.86,2.19,5.96,7.03,4.45,14.39,8.42,21.12,13.27,10.94,7.88,21.76,15.98,32.12,24.61,9.64,8.03,18.21,17.18,24.79,28.04,4.36,7.19,9.03,14.19,13.58,21.26.43.66.98,1.24,1.88,2.35.24-1.36.37-2.09.49-2.76.7.6,1.42,1.23,2.14,1.85.25-1.12.12-2.01-.27-2.76-2.29-4.44-4.44-8.97-7.02-13.25-14.8-24.57-35.52-43.3-59.07-59.13-9.13-6.13-18.45-11.96-27.76-17.82-1.7-1.07-2.13-2.14-1.59-4.04,1.7-5.91,3.3-11.84,4.84-17.79,1.34-5.19,2.54-10.42,3.81-15.63ZM325.22,157.58c-.24.05-.49.09-.73.14.31,1.36.57,2.73.93,4.08,2.57,9.7,5.13,19.41,7.78,29.1.44,1.6.01,2.49-1.31,3.3-3.49,2.13-6.93,4.32-10.39,6.49-21.83,13.65-42.98,28.12-59.9,47.94-9.42,11.03-17.67,22.78-23.73,36-.35.77-.58,1.6-1.09,3.03,1.41-.67,2.17-1.03,2.8-1.34.31.54.57.99,1.04,1.81,2.52-4.15,4.73-8.04,7.19-11.78,4.59-6.95,8.88-14.16,14.07-20.64,13.53-16.9,30.53-29.98,48.29-42.09,7.78-5.3,15.86-10.15,23.82-15.19,1.91-1.21,2.46-2.8,1.82-4.98-1.57-5.35-3.02-10.74-4.6-16.09-1.95-6.61-3.99-13.19-5.98-19.79ZM152.93,301.44c-.82-.21-1.29-.4-1.76-.44-14-1.18-28-2.37-42-3.52-3.35-.28-4.8,1.09-4.86,4.46-.05,2.61,1.08,4.55,3.58,5.4,1.87.63,3.82,1.19,5.77,1.4,8.51.93,17.02,1.79,25.54,2.54,4.19.37,8.41.44,12.74.65.35-3.72.67-7.08.99-10.49ZM312.73,311.85c1.11,0,2.01.06,2.9,0,9.35-.77,18.71-1.49,28.05-2.38,3.96-.37,7.91-.97,11.82-1.71,3.06-.57,5.09-3.89,4.62-7.03-.37-2.51-2.39-3.6-6.04-3.26-.33.03-.66.08-.99.11-6.05.61-12.08,1.29-18.14,1.8-6.88.58-13.77,1.09-20.67,1.48-1.96.11-2.67.78-2.41,2.72.35,2.62.55,5.27.86,8.26ZM170.11,303.22c41.58,1.26,83.19,1.26,124.64,0,.94-3.15-.7-3.3-2.54-3.3-13.59.04-27.18.11-40.77.1-26.26-.01-52.52-.06-78.79-.13-1.91,0-3.47.1-2.54,3.32ZM170.08,295.57h124.94c-.07-1-.12-1.71-.18-2.64-1.05,0-1.96,0-2.86,0-27.02.02-54.04.03-81.06.05-12.84,0-25.68.03-38.53.03-1.63,0-3.19.04-2.32,2.56ZM151.18,136.62c.07.23.15.46.22.7,53.87-10.91,107.77-10.67,162.14-.21-.73-.44-1.05-.74-1.42-.84-6.59-1.71-13.11-3.83-19.79-5.02-19.42-3.46-39.12-3.87-58.77-4.48-8.14-.25-16.32.53-24.48.83-14.17.52-28.27,1.78-42.16,4.69-5.31,1.12-10.5,2.86-15.74,4.32ZM364.29,299.34c.68-4.44-3.28-8.72-7.37-8.91-1.75-.08-3.52-.2-5.24.02-1.9.24-2.75-.41-3.49-2.17-2.15-5.16-5.34-7.26-10.15-6.73-6.62.72-13.23,1.52-19.82,2.52-2.09.32-4.14,1.22-6.05,2.18-.78.39-1.14,1.62-1.7,2.47,2.26-.36,3.9-1.53,5.69-1.79,7.33-1.08,14.68-2.05,22.06-2.72,4.55-.42,7.61,2.11,8.55,6.58-11.88.79-23.72,1.57-35.48,2.34-.53,1.69-.26,2.43,1.49,2.32,12.8-.79,25.61-1.39,38.39-2.36,5.45-.42,10.21-.05,13.12,6.26ZM154.22,288.61c-.54-.74-.95-1.81-1.72-2.27-1.4-.84-2.96-1.66-4.55-1.9-6.66-1.02-13.34-1.89-20.03-2.7-6.23-.75-9.53,1.25-11.53,7-.48,1.39-1.09,1.78-2.49,1.71-2.16-.11-4.35-.15-6.49.07-4.51.47-7.63,4.27-6.81,8.45,2.33-5.24,6.39-6.48,11.56-6,7.29.68,14.62,1.06,21.93,1.53,5.9.38,11.79.73,17.7.98.59.03,1.21-.69,1.81-1.06-.53-.47-1.02-1.01-1.62-1.38-.31-.19-.81-.08-1.23-.11-10.06-.67-20.11-1.33-30.17-2.01-.94-.06-1.87-.23-2.89-.36,2.05-5.13,4.44-6.82,9.48-6.38,5.3.47,10.6,1.13,15.86,1.95,3.63.57,7.19,1.57,11.2,2.46ZM307.14,299.9c-.21,0-.41,0-.62,0,0-3.84.07-7.67-.03-11.51-.06-2.41-2.15-4.16-4.51-4.02-2.36.15-3.67,1.87-3.46,4.52.43,5.38.74,10.77,1.35,16.13.32,2.78.95,5.58,1.89,8.21.42,1.19,1.93,2,2.95,2.98.76-1.28,1.6-2.52,2.25-3.85.27-.56.18-1.31.18-1.98.01-3.5,0-7.01,0-10.51ZM164.19,305.86c1.56-3.59.54-7.45,1.56-11.14.5-1.81.4-3.79.56-5.7.22-2.74-.98-4.31-3.42-4.54-2.78-.26-4.54,1.13-4.67,3.89-.24,5.15-.43,10.3-.54,15.46-.07,3.23-.09,6.49.19,9.7.09,1,1.13,2.58,1.89,2.69.9.12,2.22-.89,2.92-1.75.59-.73.7-1.96.76-2.98.19-2.93.25-5.87.35-8.81.18,0,.37.02.55.03-.05,1.05-.11,2.11-.16,3.16ZM118,231.87c-4.61,3.3-7.66,8.88-8.74,15.49-1.56,9.55-.86,19.11-.28,28.68.17,2.77.59,5.52.89,8.28.5-.55.63-1.1.65-1.66.25-7.08.37-14.16.77-21.23.57-10.2.76-20.53,6.72-29.56ZM353.63,284.14c.31.01.62.02.92.03.15-.7.41-1.4.45-2.11.42-8.82,1.04-17.64,1.11-26.47.05-6.54-1.12-12.98-4.71-18.66-1.25-1.99-2.92-3.72-4.82-6.1,1.71,4.48,3.81,8.07,4.39,11.9,1.29,8.45,1.99,17,2.58,25.54.36,5.26.07,10.57.07,15.86ZM257.87,267.47c6.23-6.78,12.46-14.3,19.46-21.01,7.02-6.73,14.64-12.88,22.32-18.87,7.58-5.91,15.57-11.29,23.38-16.91-17.65,6.75-58,42.37-65.17,56.78ZM141.79,210.23c24.5,17.59,49.33,34.81,66.8,60.21-16.45-26.51-41.19-43.85-66.8-60.21ZM346.75,182.99c2.77.13,4.36-1.31,5.48-4.81.72-2.24-.31-4.89-2.43-6.27-2.53-1.66-4.84-1.58-6.84.28-1.6,1.5-1.98,3.24-1.03,5.33,2.62-1.99,3.22-2.11,4.52-.96,1.79,1.57,1.89,3.22.29,6.44ZM123.02,176.53c.67-1.59-.16-3.25-1.86-4.59-2.02-1.59-4.71-1.53-6.7.02-1.94,1.51-2.75,4.91-1.68,7.53.85,2.1,2.2,3.61,5.12,3.35-.99-2.46-2.36-5.07.68-6.62,1-.51,2.59.14,4.45.31ZM330.7,224.23c-.02-2.52-2.52-4.99-4.96-4.9-2.09.07-4.28,2.14-4.31,4.06-.04,2.87,3.26,6.61,5.78,6.56,1.38-.03,3.51-3.52,3.49-5.72ZM320.9,223.13c-1.67,2.96-.83,5.92,2.03,7.97,3.22,2.32,6.89,2.27,9.08-.12,2.64-2.88,2.32-7.74-.73-11.13-2.52-2.8-6.87-3.16-9.96-.79-.29.22-.38.7-.7,1.34,5.08-2.45,7.2-2.3,9.78.46,2.19,2.35,2.73,5.44,1.37,7.79-1.23,2.12-3.44,3.17-5.68,2.69-3-.65-4.77-3.35-5.18-8.22ZM339.02,236.28c.51-11.06.34-22.07-1.25-32.99-.37.02-.74.05-1.1.07.78,10.97,1.57,21.95,2.35,32.92ZM125.48,236.12c.37-11.02,2.48-21.93,1.89-32.97-2.24,10.92-2.46,21.94-1.89,32.97ZM125.68,336.01c-1.68-3.78-3.19-6.83-4.39-10-1.16-3.05-2-6.22-2.99-9.34-.26.1-.53.2-.79.3.66,6.97,2.69,13.37,8.17,19.04ZM346.64,316.87c-2.34,6.26-4.61,12.35-6.72,18,3.38-2,7.85-13.17,6.72-18ZM339.06,185.67c2.69-1.71,5.32-3.47,6.41-6.53-.17-.15-.35-.29-.52-.44-1.96,2.32-3.93,4.64-5.89,6.97ZM119.44,178.56c-.24.21-.48.43-.72.64,2.18,2.3,4.37,4.61,6.55,6.91.17-.16.34-.32.52-.49-2.12-2.36-4.23-4.71-6.35-7.07Z"/><path class="cls-4" d="M57.9,286.79c7.67,0,15.35,0,23.02,0,2.84,0,4.82,1.36,4.76,3.29-.05,1.98-1.96,3.47-4.67,3.47-15.51.02-31.02.02-46.54,0-2.6,0-4.36-1.49-4.3-3.49.06-2.02,1.74-3.27,4.46-3.28,7.76,0,15.51,0,23.27,0Z"/><path class="cls-4" d="M404.43,286.75c7.5,0,15.01,0,22.51,0,1.99,0,3.68.9,3.71,2.88.02,1.2-1.18,2.5-2.05,3.58-.3.38-1.25.32-1.91.32-14.75.04-29.51.09-44.26.07-2.36,0-4.16-1.71-4.04-3.56.12-1.92,1.8-3.23,4.29-3.24,7.25-.02,14.51,0,21.76,0,0-.02,0-.03,0-.05Z"/><path class="cls-4" d="M67.45,316.46c-7,0-14-.01-20.99.01-1.84,0-3.27-.81-3.41-2.56-.08-.99.82-2.2,1.57-3.06.37-.43,1.39-.41,2.11-.41,13.66-.02,27.33-.01,40.99,0,.5,0,1.02-.06,1.5.05,1.63.37,3.19,1.05,3.11,2.99-.08,1.95-1.43,2.93-3.37,2.93-7.16.02-14.33,0-21.49,0,0,.02,0,.04,0,.06Z"/><path class="cls-4" d="M395.84,316.42c-6.66,0-13.32.01-19.99,0-2.71,0-4.17-1.03-4.2-2.85-.03-1.84,1.69-3.12,4.29-3.12,13.49-.01,26.98-.07,40.47.06,1.25.01,2.83.95,3.59,1.96.42.57-.27,2.37-.95,3.23-.48.6-1.79.72-2.73.72-6.83.06-13.66.03-20.49.03v-.03Z"/><path class="cls-4" d="M98.33,205.68c2.33,0,4.67,0,7,0,1.58,0,2.98.57,3.01,2.29.03,1.78-1.3,2.62-3,2.64-4.67.05-9.33.06-14,.05-1.73,0-3.01-.85-2.97-2.65.04-1.72,1.34-2.33,2.96-2.32,2.33.02,4.67,0,7,0,0,0,0,0,0-.01Z"/><path class="cls-4" d="M366.16,210.69c-2.25,0-4.5.05-6.75-.02-1.74-.05-3.26-.66-3.17-2.71.09-1.92,1.55-2.32,3.22-2.31,4.25.02,8.5,0,12.75,0,.33,0,.76-.1.98.06.99.71,1.93,1.5,2.88,2.26-.97.88-1.85,2.32-2.94,2.51-2.27.39-4.65.12-6.98.12,0,.03,0,.06,0,.09Z"/><path class="cls-4" d="M233.42,187.07v-43.09c-.25-.14-.5-.28-.75-.42-.42.52-1.08.98-1.21,1.56-.21.96-.09,1.99-.08,2.99.02,12.27.06,24.53.08,36.8,0,.65-.08,1.3-.14,2.28-1.07,0-2.05,0-3.02,0-25.37.2-50.73.4-76.1.59-2.25.02-4.52.08-6.75-.13-4.47-.43-6.8-3.48-5.81-7.76,1.8-7.77,3.59-15.55,5.73-23.22,2.17-7.79,7.65-11.94,15.66-12.47,14.2-.94,28.41-1.82,42.63-2.51,9.24-.45,18.49-.79,27.74-.72,13.92.12,27.83.57,41.74,1.02,8,.26,15.99.64,23.97,1.27,4.12.32,8.29.91,12.24,2.07,5.57,1.64,8.77,5.98,10.22,11.41,2.1,7.85,3.95,15.76,5.78,23.68.76,3.32-1.45,6.24-5.13,7.09-1.12.26-2.32.28-3.48.28-27.12-.2-54.24-.41-81.35-.63-.56,0-1.12-.06-1.94-.1ZM237.45,182.71c4.48,0,8.56.05,12.64-.05.7-.02,1.55-.51,2.05-1.04,3.06-3.24,6.71-5.43,11.06-6.4,8.76-1.97,16.4.77,23.55,5.61.95.64,1.95,1.69,2.94,1.71,7.39.15,14.79.08,22.22.08-.13-1.91-1.14-2.57-2.96-2.53-4.34.08-8.67-.02-13.01.07-2.52.05-4.89-.05-7.21-1.34-2.76-1.53-5.73-2.65-8.59-4-.93-.44-2.61-.32-2.1-2.12.46-1.63.68-3.6,3.07-3.62,1.98-.02,3.97,0,5.93,0,.94-6-1.6-10.6-6.46-11.66-1.78-.39-3.61-.58-5.43-.69-8.72-.52-17.43-1.05-26.16-1.44-3.8-.17-7.62-.03-11.55-.03v27.45ZM227.42,155.32c-.32-.1-.48-.2-.63-.19-12.98.55-25.98.82-38.93,1.78-8.13.6-11.34,4.83-10.43,11.99,2.98,0,5.97-.03,8.95,0,2.41.03,4.12,1.07,4.81,3.48-.14.15-.23.32-.37.39-4.49,2.35-8.97,4.72-13.5,7-.7.35-1.61.36-2.42.37-6.34.04-12.68.08-19.02.02-1.81-.02-2.83.55-2.87,2.52,8.32,0,16.57.03,24.82-.05.69,0,1.5-.58,2.05-1.1,9.44-9.01,24.5-9.56,32.94-.1.47.52,1.15,1.2,1.75,1.21,4.23.11,8.45.06,12.85.06v-27.38ZM321.72,180.55l-.44-.5c-.07-.49-.09-1-.22-1.48-1.98-7.64-3.94-15.29-6.01-22.91-.27-.99-.87-2.14-1.68-2.67-.9-.59-2.37-1-3.28-.65-.63.24-1.23,2-1,2.86,2.25,8.68,4.65,17.32,7.08,25.95.31,1.11.65,2.82,2.4,2.02,1.19-.55,2.1-1.72,3.14-2.61ZM142.96,180.08c1.05,1.09,1.86,2.47,3.07,3.06,1.75.87,2.28-.82,2.63-2.09,2.4-8.64,4.8-17.29,7.05-25.97.21-.79-.39-2.28-1.06-2.68-.7-.41-2.11-.17-2.91.3-.78.45-1.44,1.47-1.7,2.37-2.36,8.13-4.62,16.28-7.08,25ZM156.29,173.62c2.62-.38,5.08.45,5.52-2.96.63-4.94,1.54-9.85,2.29-14.78.12-.81.02-1.65.02-2.48-.32-.05-.63-.1-.95-.15-3.75,6.1-4.85,13.13-6.88,20.38ZM300.43,153.33c.84,5.79,1.56,11.28,2.45,16.73.59,3.56,1.3,3.94,5.06,3.35-.01-5.05-4.78-18.4-7.51-20.08ZM257.47,182.05c.07.14.14.28.21.42h23.09c-5.94-4.27-12.71-1.51-19.03-2.42-1.3-.19-2.84,1.29-4.27,2ZM207.53,182.55c-3.7-3.47-18.79-3.36-22.01,0h22.01Z"/><path class="cls-4" d="M203.26,223.04c-.38-16.72,12.96-28.88,28.83-29.08,19.26-.24,30.4,15.8,30.03,29.41-.46,17.07-13.33,29.65-30.42,29.45-15.75-.19-28.68-13.74-28.44-29.79ZM258.09,223.47c-.2-14.61-11.34-25.89-25.4-25.72-14.78.18-25.93,11.43-25.69,25.92.23,14.15,11.9,25.72,25.8,25.56,14.32-.16,25.48-11.53,25.29-25.77Z"/><path class="cls-4" d="M152.76,241.72c-11.09,0-16.7,3.9-17.98,12.2-.81,5.25,1.52,10.38,5.69,11.77-3.28-3.77-4.68-7.64-2.4-12.5.31,5.2,1.27,9.94,6.3,11.87,5.26,2.02,9.55-.02,12.51-4.89.21.12.42.24.63.37-.46,1.39-.93,2.77-1.39,4.16,5.94-2.4,5.88-11.42-.13-20.41,4.03.99,8.14,6.64,8.5,11.67.48,6.74-3.82,13.85-9.84,16.26-7.09,2.84-14.39,1.11-19.29-4.57-8.05-9.33-4.23-23.69,7.15-26.94,3.15-.9,6.61-.59,10.24,1.03Z"/><path class="cls-4" d="M311.66,241.69c5.9-2.88,12.17-1.54,16.7,2.52,5.02,4.5,6.7,11.51,4.36,17.79-2.54,6.8-8.72,11.29-16.02,11.61-6.13.28-12.58-3.93-15.24-9.93-3.25-7.34.17-16.96,7.16-19.36-2.9,2.91-4.17,6.53-4.52,10.43-.35,3.92.64,7.44,4.19,9.85-.52-1.38-1.03-2.76-1.55-4.14.15-.14.31-.29.46-.43,3.29,4.9,7.66,7.5,13.19,4.84,4.46-2.14,6.41-6.3,5.81-11.47,2.5,4.09,2.09,6.67-1.87,12.11,3.58-.66,6.35-6.06,5.65-11.02-1.18-8.4-8.25-13.5-18.33-12.8Z"/><path class="cls-4" d="M239.38,233.23c-1.08-2.6-2.19-4.74-2.84-7-.62-2.18-1.86-2.87-3.97-2.82-2.01.05-3.13.71-3.71,2.81-.63,2.27-1.8,4.39-2.96,7.09-3.55-7.89-6.87-15.28-10.36-23.04,2.03-1.79,4.12-3.64,6.4-5.65,2.47,5.43,4.89,10.51,7.07,15.69.78,1.85,2.08,1.83,3.58,1.87,1.55.04,2.92-.03,3.67-1.83,2.14-5.14,4.41-10.23,6.87-15.89,2.06,1.79,4.03,3.35,5.79,5.12.39.4.25,1.65-.05,2.34-3.03,6.94-6.14,13.85-9.48,21.33Z"/><path class="cls-4" d="M224.28,242.51c-10.42-3.71-15.14-15.05-11.37-26.51,3.9,9.1,7.64,17.8,11.37,26.51Z"/><path class="cls-4" d="M240.71,243.06c3.95-9.18,7.71-17.9,11.5-26.7,5.36,9.63-2.59,24.64-11.5,26.7Z"/><path class="cls-4" d="M238.72,244.5h-11.92c2.01-4.79,3.8-9.04,5.86-13.94,2.09,4.81,3.93,9.06,6.06,13.94Z"/><path class="cls-4" d="M226.64,202.51h11.9c-2.06,4.6-3.88,8.66-5.92,13.22-2.05-4.54-3.89-8.59-5.98-13.22Z"/><text class="cls-3" transform="translate(63.53 210.01) rotate(-72.29) scale(1.02 1)"><tspan x="0" y="0">V</tspan></text><text class="cls-3" transform="translate(76.37 165.19) rotate(-55.69) scale(1.02 1)"><tspan x="0" y="0">O</tspan></text><text class="cls-3" transform="translate(105.52 123.15) rotate(-41.38) scale(1.02 1)"><tspan x="0" y="0">L</tspan></text><text class="cls-3" transform="translate(129.29 100.11) rotate(-27.79) scale(1.02 1)"><tspan x="0" y="0">K</tspan></text><text class="cls-3" transform="translate(169.21 78.14) rotate(-12.98) scale(1.02 1)"><tspan x="0" y="0">S</tspan></text><text class="cls-3" transform="translate(209.47 65.18) rotate(5.39) scale(1.02 1)"><tspan x="0" y="0">W</tspan></text><text class="cls-3" transform="translate(276.16 71.47) rotate(23.91) scale(1.02 1)"><tspan x="0" y="0">A</tspan></text><text class="cls-3" transform="translate(319.35 89.12) rotate(40.02) scale(1.02 1)"><tspan x="0" y="0">G</tspan></text><text class="cls-3" transform="translate(358.29 121.66) rotate(55.31) scale(1.02 1)"><tspan x="0" y="0">E</tspan></text><text class="cls-3" transform="translate(381.92 152.4) rotate(71.2) scale(1.02 1)"><tspan x="0" y="0">N</tspan></text><path class="cls-4" d="M79.77,222.65c5.12,0,10.23,0,15.35,0,3.47,0,6.53.57,6.6,2.29.07,1.78-2.84,2.62-6.58,2.64-10.23.05-20.46.06-30.69.05-3.8,0-6.6-.85-6.52-2.65.08-1.72,2.94-2.33,6.49-2.32,5.12.02,10.23,0,15.35,0,0,0,0,0,0-.01Z"/><path class="cls-4" d="M378.32,222.65c5.12,0,10.23,0,15.35,0,3.47,0,6.53.57,6.6,2.29.07,1.78-2.84,2.62-6.58,2.64-10.23.05-20.46.06-30.69.05-3.8,0-6.6-.85-6.52-2.65.08-1.72,2.94-2.33,6.49-2.32,5.12.02,10.23,0,15.35,0,0,0,0,0,0-.01Z"/><text class="cls-5" transform="translate(29.48 429.9)"><tspan x="0" y="0">MEETUP</tspan></text><text class="cls-6" transform="translate(36.86 267.47)"><tspan x="0" y="0">1</tspan><tspan class="cls-1" x="11.05" y="0">9</tspan><tspan class="cls-2" x="28.55" y="0">4</tspan><tspan x="45.87" y="0">7</tspan></text><text class="cls-6" transform="translate(368.9 267.47)"><tspan x="0" y="0">2024</tspan></text></svg>